<svg preserveAspectRatio="none" width="100%" height="100%" overflow="visible" style="display: block;" viewBox="0 0 93.9631 73.2801" fill="none" xmlns="http://www.w3.org/2000/svg">
<g id="Group">
<path id="Vector" d="M12.9421 44.5819V59.3922H44.4223V73.2274H0V22.3929C0 21.1016 1.1669 17.0432 1.64427 15.6202C8.11534 -3.16934 33.3632 -5.54109 42.8576 11.6936C55.0042 33.7245 32.2758 57.6792 12.9156 44.6082L12.9421 44.5819ZM33.5488 24.343C33.5488 18.0183 28.9342 12.9059 23.2322 12.9059C17.5303 12.9059 12.9156 18.0183 12.9156 24.343C12.9156 30.6676 17.5303 35.7801 23.2322 35.7801C28.9342 35.7801 33.5488 30.6676 33.5488 24.343Z" fill="url(#paint0_linear_0_416)"/>
<path id="Vector_2" d="M74.5764 47.7442C54.1819 52.4614 39.675 26.6093 53.2006 8.79482C63.1194 -4.24981 82.8509 -2.45782 90.8601 12.0099C91.8149 13.7228 93.963 19.2042 93.963 20.9962V73.2801H49.9916V59.4449H81.4718V45.1089C79.0054 45.6624 77.1754 47.1645 74.6029 47.7706L74.5764 47.7442ZM70.943 35.7801C76.645 35.7801 81.2331 30.6676 81.2331 24.3693C81.2331 18.071 76.6185 12.9586 70.943 12.9586C65.2676 12.9586 60.653 18.071 60.653 24.3693C60.653 30.6676 65.2676 35.7801 70.943 35.7801Z" fill="url(#paint1_linear_0_416)"/>
</g>
<defs>
<linearGradient id="paint0_linear_0_416" x1="0" y1="36.6361" x2="46.2686" y2="36.6361" gradientUnits="userSpaceOnUse">
<stop stop-color="#F15C64"/>
<stop offset="1" stop-color="#FC9039"/>
</linearGradient>
<linearGradient id="paint1_linear_0_416" x1="47.9397" y1="36.64" x2="93.963" y2="36.64" gradientUnits="userSpaceOnUse">
<stop stop-color="#F15C64"/>
<stop offset="1" stop-color="#FC9039"/>
</linearGradient>
</defs>
</svg>
